<?xml version="1.0" encoding="UTF-8" standalone="no"?>
<!-- Created with Inkscape (http://www.inkscape.org/) -->

<svg
   xmlns:dc="http://purl.org/dc/elements/1.1/"
   xmlns:cc="http://creativecommons.org/ns#"
   xmlns:rdf="http://www.w3.org/1999/02/22-rdf-syntax-ns#"
   xmlns:svg="http://www.w3.org/2000/svg"
   xmlns="http://www.w3.org/2000/svg"
   xmlns:sodipodi="http://sodipodi.sourceforge.net/DTD/sodipodi-0.dtd"
   xmlns:inkscape="http://www.inkscape.org/namespaces/inkscape"
   width="128"
   height="128"
   id="svg4897"
   version="1.1"
   inkscape:version="0.48.3.1 r9886"
   sodipodi:docname="text-x-txt2tags.svg"
   inkscape:export-filename="/home/eric/_mesdocs/mes_vcs/txt2tags/extras/mime-type/text-x-txt2tags.png"
   inkscape:export-xdpi="89.599998"
   inkscape:export-ydpi="89.599998">
  <defs
     id="defs4899" />
  <sodipodi:namedview
     id="base"
     pagecolor="#ffffff"
     bordercolor="#666666"
     borderopacity="1.0"
     inkscape:pageopacity="0.0"
     inkscape:pageshadow="2"
     inkscape:zoom="1.4"
     inkscape:cx="76.568847"
     inkscape:cy="127.13466"
     inkscape:document-units="px"
     inkscape:current-layer="layer1"
     showgrid="false"
     inkscape:window-width="1280"
     inkscape:window-height="952"
     inkscape:window-x="-7"
     inkscape:window-y="-10"
     inkscape:window-maximized="1" />
  <metadata
     id="metadata4902">
    <rdf:RDF>
      <cc:Work
         rdf:about="">
        <dc:format>image/svg+xml</dc:format>
        <dc:type
           rdf:resource="http://purl.org/dc/dcmitype/StillImage" />
        <dc:title></dc:title>
      </cc:Work>
    </rdf:RDF>
  </metadata>
  <g
     inkscape:label="Layer 1"
     inkscape:groupmode="layer"
     id="layer1"
     transform="translate(0,-924.36218)">
    <g
       id="g3042">
      <rect
         inkscape:export-ydpi="89.599998"
         inkscape:export-xdpi="89.599998"
         inkscape:export-filename="/home/eric/_mesdocs/mes_vcs/txt2tags/extras/mime-type/text-x-txt2tags.png"
         style="opacity:0.5;color:#000000;fill:#ffffff;fill-opacity:1;fill-rule:nonzero;stroke:none;stroke-width:2.30020928;marker:none;visibility:visible;display:inline;overflow:visible;enable-background:accumulate"
         id="rect6780"
         width="128.57143"
         height="128.57143"
         x="-1.8990221e-06"
         y="924.50507" />
      <path
         inkscape:connector-curvature="0"
         inkscape:export-ydpi="89.599998"
         inkscape:export-xdpi="89.599998"
         inkscape:export-filename="/home/eric/_mesdocs/mes_vcs/txt2tags/extras/mime-type/text-x-txt2tags.png"
         style="opacity:0.94000005;fill:#ffffff;fill-opacity:1;fill-rule:nonzero;stroke:#000000;stroke-width:1.97160792;stroke-linecap:butt;stroke-linejoin:miter;stroke-miterlimit:4;stroke-opacity:1;stroke-dasharray:none;stroke-dashoffset:0;marker:none;visibility:visible;display:inline;overflow:visible;enable-background:accumulate"
         d="m 21.529699,928.39484 0,0.0855 0,120.72256 0,0.107 0.106972,0 87.712589,0 0.10697,0 0,-0.107 0,-92.6164 -28.381142,-28.19172 -59.438417,0 -0.106972,0 z"
         id="path4682"
         sodipodi:nodetypes="ccccccccccccc" />
      <path
         inkscape:connector-curvature="0"
         inkscape:export-ydpi="89.599998"
         inkscape:export-xdpi="89.599998"
         inkscape:export-filename="/home/eric/_mesdocs/mes_vcs/txt2tags/extras/mime-type/text-x-txt2tags.png"
         style="fill:none;stroke:#000000;stroke-width:1.54968393;stroke-linecap:butt;stroke-linejoin:miter;stroke-miterlimit:4;stroke-opacity:1;stroke-dasharray:none;stroke-dashoffset:0;marker:none;visibility:visible;display:inline;overflow:visible;enable-background:accumulate"
         d="m 109.41235,956.65305 -28.410634,0 0,-27.98517"
         id="path4720"
         sodipodi:nodetypes="ccc" />
      <path
         inkscape:export-ydpi="89.599998"
         inkscape:export-xdpi="89.599998"
         inkscape:export-filename="/home/eric/_mesdocs/mes_vcs/txt2tags/extras/mime-type/text-x-txt2tags.png"
         style="fill:#000000;display:inline"
         d="m 37.272336,948.36251 -1.255397,0 0,-5.02157 0,-5.02154 -2.510768,0 -2.510786,0 0,-1.2554 0,-1.25538 6.276951,0 6.276943,0 0,1.25538 0,1.2554 -2.510786,0 -2.510777,0 0,5.02154 0,5.02157 z m 15.064663,0 -6.276951,0 0,-3.76617 0,-3.76617 5.021563,0 5.021545,0 0,-1.25539 0,-1.25538 -5.021545,0 -5.021563,0 0,-1.2554 0,-1.25538 6.276951,0 6.276943,0 0,3.76616 0,3.76616 -5.021554,0 -5.021555,0 0,1.2554 0,1.25539 5.021555,0 5.021554,0 0,1.25539 0,1.25539 z m 15.064672,0 -1.255398,0 0,-5.02157 0,-5.02154 -2.510768,0 -2.510786,0 0,-1.2554 0,-1.25538 6.276952,0 6.276934,0 0,1.25538 0,1.2554 -2.510777,0 -2.510777,0 0,5.02154 0,5.02157 z"
         id="path4804"
         inkscape:connector-curvature="0"
         sodipodi:nodetypes="ccccccccccccccccccccccccccccccccccccccccccccccccccccccccccc" />
      <g
         inkscape:export-ydpi="89.599998"
         inkscape:export-xdpi="89.599998"
         inkscape:export-filename="/home/eric/_mesdocs/mes_vcs/txt2tags/extras/mime-type/text-x-txt2tags.png"
         id="g4786"
         transform="matrix(0.76058546,0,0,0.76058546,-390.95817,1037.0892)"
         style="display:inline">
        <g
           id="g4788">
          <rect
             style="color:#000000;fill:#65cb65;fill-opacity:1;fill-rule:nonzero;stroke:#ffffff;stroke-width:2.58485031;stroke-linecap:butt;stroke-linejoin:miter;stroke-miterlimit:4;stroke-opacity:1;stroke-dasharray:none;stroke-dashoffset:0;marker:none;visibility:visible;display:inline;overflow:visible;enable-background:accumulate"
             id="rect4790"
             width="100.3973"
             height="100.3973"
             x="550.72308"
             y="-92.9524"
             ry="7.1304893" />
          <path
             inkscape:connector-curvature="0"
             style="font-size:medium;font-style:normal;font-variant:normal;font-weight:normal;font-stretch:normal;text-indent:0;text-align:start;text-decoration:none;line-height:normal;letter-spacing:normal;word-spacing:normal;text-transform:none;direction:ltr;block-progression:tb;writing-mode:lr-tb;text-anchor:start;baseline-shift:baseline;color:#000000;fill:#000000;fill-opacity:1;stroke:none;stroke-width:7;marker:none;visibility:visible;display:inline;overflow:visible;enable-background:accumulate;font-family:Sans;-inkscape-font-specification:Sans"
             d="m 603.97331,-85.334645 c -2.9845,0.04 -6.52364,1.6733 -9.77398,5.3659 -3.71709,4.3569 -6.57017,12.2053 -0.5885,16.4092 0.46941,0.242 0.96655,0.417 1.47706,0.5424 l -17.54005,39.8112 c -3.18853,-0.4064 -7.22717,1.1433 -10.8933,5.3082 -3.71713,4.357 -6.57021,12.1938004 -0.58853,16.3977004 4.85553,2.5034 12.21762,-1.4004 15.60141,-8.2739 2.85682,-5.8029004 1.78281,-10.2862004 -1.13087,-12.3126004 -0.16691,-0.1161 -0.34072,-0.2234 -0.51926,-0.3231 l 17.80545,-40.446 c 0.44012,-0.047 0.88025,-0.1316 1.32706,-0.2423 l 0.38078,40.9768 c -1.77398,0.8686 -3.5953,2.2513 -5.33125,4.2234 -3.71709,4.357 -6.57017,12.1938004 -0.5885,16.3977004 4.8555,2.5034 12.21763,-1.4004 15.60142,-8.2739 2.85678,-5.8029004 1.78281,-10.2862004 -1.13087,-12.3126004 -1.56945,-1.0915 -3.67089,-1.4691 -5.97747,-0.9578 l -0.38082,-41.0229 c 0.38965,-0.1972 0.77224,-0.4184 1.15395,-0.6578 l 16.62845,50.1045 c -2.30993,4.3294 -3.02305,9.8362004 1.65014,13.1205004 4.85553,2.5034 12.21762,-1.4004 15.60141,-8.2739 2.85682,-5.8029004 1.78281,-10.2862004 -1.13087,-12.3126004 -3.2935,-2.2906 -8.92914,-1.4379 -13.88201,4.1888 -0.14209,0.1665 -0.28788,0.343 -0.42698,0.5193 l -16.25915,-48.9852 c 0.29932,-0.2671 0.59156,-0.5496 0.877,-0.8424 l 15.43986,18.7286 c -3.52721,4.4293 -5.99991,11.885 -0.21926,15.9476 4.85553,2.5035 12.21762,-1.4003 15.60141,-8.2738 2.85682,-5.803 1.78281,-10.2862 -1.13087,-12.3127 -2.98473,-2.0758 -7.89321,-1.5769 -12.47419,2.7234 l -15.52066,-18.8325 c 0.58798,-0.8133 1.12282,-1.689 1.58093,-2.6195 2.85678,-5.803 1.78281,-10.2863 -1.13087,-12.3126 -1.13216,-0.7874 -2.54475,-1.198 -4.10807,-1.1771 z"
             id="path4792" />
          <path
             style="color:#000000;fill:#ffffff;fill-opacity:1;fill-rule:nonzero;stroke:#000000;stroke-width:1.50564575;stroke-linecap:butt;stroke-linejoin:miter;stroke-miterlimit:4;stroke-opacity:1;stroke-dasharray:none;stroke-dashoffset:0;marker:none;visibility:visible;display:inline;overflow:visible;enable-background:accumulate"
             d="m 626.53123,-6.0580446 c -3.48423,-2.4487 -1.82406,-7.0179004 0.34112,-9.5558004 2.88499,-3.2775 6.16967,-3.7714 8.08811,-2.4372 1.69718,1.1804 2.32507,3.7915 0.66102,7.1716 -1.97098,4.0037004 -6.26195,6.2796004 -9.09025,4.8214004 z"
             id="path4794"
             inkscape:connector-curvature="0"
             sodipodi:nodetypes="ccssc" />
          <path
             sodipodi:nodetypes="ccssc"
             inkscape:connector-curvature="0"
             id="path4796"
             d="m 623.30434,-33.486645 c -3.48427,-2.4487 -1.82406,-7.0179 0.34112,-9.5558 2.88499,-3.2775 6.16967,-3.7713 8.08811,-2.4372 1.69718,1.1804 2.32507,3.7915 0.66102,7.1716 -1.97102,4.0038 -6.26195,6.2796 -9.09025,4.8214 z"
             style="color:#000000;fill:#ffffff;fill-opacity:1;fill-rule:nonzero;stroke:#000000;stroke-width:1.50564575;stroke-linecap:butt;stroke-linejoin:miter;stroke-miterlimit:4;stroke-opacity:1;stroke-dasharray:none;stroke-dashoffset:0;marker:none;visibility:visible;display:inline;overflow:visible;enable-background:accumulate" />
          <path
             sodipodi:nodetypes="ccssc"
             inkscape:connector-curvature="0"
             id="path4798"
             d="m 596.68249,-6.0580446 c -3.48427,-2.4487 -1.82406,-7.0179004 0.34112,-9.5558004 2.88499,-3.2775 6.16967,-3.7714 8.08811,-2.4372 1.69717,1.1804 2.32507,3.7915 0.66102,7.1716 -1.97102,4.0037004 -6.26195,6.2796004 -9.09025,4.8214004 z"
             style="color:#000000;fill:#ffffff;fill-opacity:1;fill-rule:nonzero;stroke:#000000;stroke-width:1.50564575;stroke-linecap:butt;stroke-linejoin:miter;stroke-miterlimit:4;stroke-opacity:1;stroke-dasharray:none;stroke-dashoffset:0;marker:none;visibility:visible;display:inline;overflow:visible;enable-background:accumulate" />
          <path
             style="color:#000000;fill:#ffffff;fill-opacity:1;fill-rule:nonzero;stroke:#000000;stroke-width:1.50564575;stroke-linecap:butt;stroke-linejoin:miter;stroke-miterlimit:4;stroke-opacity:1;stroke-dasharray:none;stroke-dashoffset:0;marker:none;visibility:visible;display:inline;overflow:visible;enable-background:accumulate"
             d="m 568.93855,-9.3195446 c -3.48427,-2.4487004 -1.82406,-7.0179004 0.34113,-9.5558004 2.88498,-3.2775 6.16966,-3.7713 8.0881,-2.4371 1.69718,1.1803 2.32508,3.7914 0.66102,7.1716 -1.97102,4.0037 -6.26198,6.2795004 -9.09025,4.8213004 z"
             id="path4800"
             inkscape:connector-curvature="0"
             sodipodi:nodetypes="ccssc" />
        </g>
      </g>
      <rect
         inkscape:export-ydpi="89.599998"
         inkscape:export-xdpi="89.599998"
         inkscape:export-filename="/home/eric/_mesdocs/mes_vcs/txt2tags/extras/mime-type/text-x-txt2tags.png"
         y="963.13763"
         x="26.516495"
         height="16.071428"
         width="78.305016"
         id="rect6042"
         style="opacity:0.5;color:#000000;fill:#ffffff;fill-opacity:1;fill-rule:nonzero;stroke:none;stroke-width:2.30020928;marker:none;visibility:visible;display:inline;overflow:visible;enable-background:accumulate" />
      <path
         inkscape:export-ydpi="89.599998"
         inkscape:export-xdpi="89.599998"
         inkscape:export-filename="/home/eric/_mesdocs/mes_vcs/txt2tags/extras/mime-type/text-x-txt2tags.png"
         inkscape:connector-curvature="0"
         id="path6760"
         d="m 32.752382,975.69869 0,-0.84556 5.221174,0 5.221183,0 0,0.84556 0,0.84557 -5.221183,0 -5.221174,0 0,-0.84557 z m 13.052949,0 0,-0.84556 2.610591,0 2.610591,0 0,0.84556 0,0.84557 -2.610591,0 -2.610591,0 0,-0.84557 z m 7.831765,0 0,-0.84556 5.221192,0 5.221165,0 0,0.84556 0,0.84557 -5.221165,0 -5.221192,0 0,-0.84557 z m 13.05294,0 0,-0.84556 3.9159,0 3.915875,0 0,0.84556 0,0.84557 -3.915875,0 -3.9159,0 0,-0.84557 z m -33.937654,-5.07335 0,-0.84557 1.305291,0 1.3053,0 0,0.84557 0,0.84556 -1.3053,0 -1.305291,0 0,-0.84556 z m 5.221174,0 0,-0.84557 3.915883,0 3.915892,0 0,0.84557 0,0.84556 -3.915892,0 -3.915883,0 0,-0.84556 z m 10.442366,0 0,-0.84557 10.442366,0 10.442348,0 0,0.84557 0,0.84556 -10.442348,0 -10.442366,0 0,-0.84556 z m 23.495306,0 0,-0.84557 1.3053,0 1.305283,0 0,0.84557 0,0.84556 -1.305283,0 -1.3053,0 0,-0.84556 z m -39.158846,-5.07336 0,-0.84558 9.137057,0 9.137074,0 0,0.84558 0,0.84556 -9.137074,0 -9.137057,0 0,-0.84556 z m 20.884714,0 0,-0.84558 2.610592,0 2.6106,0 0,0.84558 0,0.84556 -2.6106,0 -2.610592,0 0,-0.84556 z m 7.831766,0 0,-0.84558 6.526474,0 6.526475,0 0,0.84558 0,0.84556 -6.526475,0 -6.526474,0 0,-0.84556 z m -28.71648,-5.07337 0,-0.84557 2.610591,0 2.610583,0 0,0.84557 0,0.84556 -2.610583,0 -2.610591,0 0,-0.84556 z m 7.831766,0 0,-0.84557 2.610591,0 2.610592,0 0,0.84557 0,0.84556 -2.610592,0 -2.610591,0 0,-0.84556 z m 7.831774,0 0,-0.84557 1.3053,0 1.305291,0 0,0.84557 0,0.84556 -1.305291,0 -1.3053,0 0,-0.84556 z m 5.221174,0 0,-0.84557 7.831766,0 7.831774,0 0,0.84557 0,0.84556 -7.831774,0 -7.831766,0 0,-0.84556 z m 18.274132,0 0,-0.84557 1.3053,0 1.305283,0 0,0.84557 0,0.84556 -1.305283,0 -1.3053,0 0,-0.84556 z m -39.158846,-5.07336 0,-0.84557 5.221174,0 5.221183,0 0,0.84557 0,0.84555 -5.221183,0 -5.221174,0 0,-0.84555 z m 13.052949,0 0,-0.84557 1.305291,0 1.3053,0 0,0.84557 0,0.84555 -1.3053,0 -1.305291,0 0,-0.84555 z m 5.221182,0 0,-0.84557 3.915875,0 3.9159,0 0,0.84557 0,0.84555 -3.9159,0 -3.915875,0 0,-0.84555 z m 10.442349,0 0,-0.84557 6.526474,0 6.526475,0 0,0.84557 0,0.84555 -6.526475,0 -6.526474,0 0,-0.84555 z"
         style="fill:#000000;display:inline" />
    </g>
  </g>
</svg>
